<?xml version="1.0" encoding="UTF-8"?>
<svg id="Layer_1" xmlns="http://www.w3.org/2000/svg" version="1.1" viewBox="0 0 128 28">
  <!-- Generator: Adobe Illustrator 29.4.0, SVG Export Plug-In . SVG Version: 2.1.0 Build 152)  -->
  <defs>
    <style>
      .st0 {
        fill-rule: evenodd;
      }
    </style>
  </defs>
  <path class="st0" d="M13.94.41C13.94,7.91,7.85,14,.35,14,.35,6.5,6.44.41,13.94.41ZM13.94,27.59C6.44,27.59.35,21.5.35,14c7.5,0,13.59,6.09,13.59,13.59ZM27.53,14c0,7.5-6.09,13.59-13.59,13.59,0-7.5,6.09-13.59,13.59-13.59ZM26.4,1.54c0,6.25-5.07,11.32-11.32,11.32,0-6.25,5.07-11.32,11.32-11.32Z"/>
  <path d="M36.54,23.31c-1,0-2-.15-3.01-.44-1-.28-1.81-.65-2.43-1.12l1.31-2.66c.5.34,1.06.61,1.68.79.64.2,1.3.3,1.98.3.79,0,1.44-.12,1.94-.35.5-.23.87-.58,1.1-1.05.25-.47.37-1.05.37-1.75v-2.05l.7.14c-.09.48-.36.93-.79,1.36-.42.42-.94.76-1.56,1.01-.62.25-1.27.37-1.96.37-1.12,0-2.12-.26-3.01-.77-.89-.53-1.59-1.25-2.1-2.17-.5-.93-.75-2-.75-3.22s.25-2.35.75-3.31c.52-.97,1.21-1.72,2.08-2.26.87-.54,1.85-.82,2.94-.82.45,0,.89.06,1.31.17.43.09.83.23,1.19.42.37.18.7.4.98.63.3.23.53.49.72.77.18.28.3.56.35.84l-.77.23.14-2.8h3.57v11.36c0,1.01-.16,1.91-.47,2.7-.3.79-.74,1.46-1.33,2-.57.54-1.27.96-2.1,1.24-.82.3-1.76.44-2.82.44ZM36.63,14.93c.61,0,1.12-.13,1.56-.4.45-.27.79-.64,1.02-1.12.25-.48.37-1.04.37-1.68s-.12-1.25-.37-1.72c-.23-.48-.57-.86-1.02-1.12-.43-.28-.96-.42-1.56-.42s-1.08.14-1.51.42c-.43.27-.77.64-1.02,1.12-.23.48-.35,1.05-.35,1.71s.12,1.22.35,1.71c.25.48.59.86,1.02,1.12s.94.4,1.51.4h0Z"/>
  <path d="M51.93,18.17c-1.36,0-2.56-.27-3.59-.82-1.01-.54-1.8-1.29-2.35-2.24-.54-.97-.82-2.06-.82-3.29,0-.97.16-1.84.47-2.64.31-.81.75-1.5,1.31-2.08.57-.57,1.24-1.01,2-1.33.77-.32,1.62-.49,2.55-.49s1.66.16,2.38.47,1.34.75,1.86,1.31c.53.56.93,1.22,1.21,1.98.28.77.42,1.6.4,2.5l-.02,1.02h-9.84l-.56-2.12h7.35l-.4.42v-.47c-.03-.39-.16-.72-.37-1.01-.2-.3-.47-.53-.82-.7-.32-.17-.7-.26-1.12-.26-.62,0-1.15.12-1.59.37-.42.23-.74.57-.96,1.02-.22.45-.32,1.01-.32,1.68s.14,1.26.42,1.77c.3.52.72.91,1.26,1.19.56.28,1.22.42,1.98.42.52,0,.98-.07,1.4-.23s.87-.42,1.36-.79l1.75,2.47c-.48.41-1,.75-1.54,1.02-.54.27-1.11.46-1.68.58-.56.14-1.12.21-1.71.21l.02.02Z"/>
  <path d="M60.28,17.94V2.43h3.75v15.51h-3.75ZM58.09,8.84v-3.29h8.33v3.29h-8.33Z"/>
  <path d="M73.66,23.31c-1,0-2-.15-3.01-.44-1-.28-1.81-.65-2.43-1.12l1.31-2.66c.5.34,1.06.61,1.68.79.64.2,1.3.3,1.98.3.79,0,1.44-.12,1.94-.35s.87-.58,1.1-1.05c.25-.47.37-1.05.37-1.75v-2.05l.7.14c-.09.48-.36.93-.79,1.36-.42.42-.94.76-1.56,1.01-.62.25-1.27.37-1.96.37-1.12,0-2.12-.26-3.01-.77-.89-.53-1.59-1.25-2.1-2.17-.5-.93-.75-2-.75-3.22s.25-2.35.75-3.31c.52-.97,1.21-1.72,2.08-2.26.87-.54,1.85-.82,2.94-.82.45,0,.89.06,1.31.17.43.09.83.23,1.19.42.37.18.7.4.98.63.29.23.53.49.72.77.18.28.3.56.35.84l-.77.23.14-2.8h3.57v11.36c0,1.01-.16,1.91-.47,2.7-.3.79-.74,1.46-1.33,2-.57.54-1.27.96-2.1,1.24-.82.3-1.76.44-2.82.44h0ZM73.75,14.93c.61,0,1.12-.13,1.56-.4.45-.27.79-.64,1.02-1.12.25-.48.37-1.04.37-1.68s-.12-1.25-.37-1.72c-.23-.48-.57-.86-1.02-1.12-.43-.28-.96-.42-1.56-.42s-1.08.14-1.51.42c-.43.27-.77.64-1.02,1.12-.23.48-.35,1.05-.35,1.71s.12,1.22.35,1.71c.25.48.59.86,1.02,1.12.43.27.94.4,1.51.4h0Z"/>
  <path d="M89.05,18.17c-1.37,0-2.56-.27-3.59-.82-1.01-.54-1.8-1.29-2.35-2.24-.54-.97-.82-2.06-.82-3.29,0-.97.16-1.84.47-2.64.31-.81.75-1.5,1.31-2.08.57-.57,1.24-1.01,2-1.33.77-.32,1.62-.49,2.55-.49.87,0,1.66.16,2.38.47s1.34.75,1.86,1.31c.53.56.93,1.22,1.21,1.98.28.77.41,1.6.4,2.5l-.02,1.02h-9.84l-.56-2.12h7.35l-.4.42v-.47c-.03-.39-.16-.72-.37-1.01-.2-.3-.47-.53-.82-.7-.32-.17-.7-.26-1.11-.26-.62,0-1.15.12-1.59.37-.42.23-.74.57-.96,1.02-.22.45-.32,1.01-.32,1.68s.14,1.26.42,1.77c.29.52.72.91,1.26,1.19.56.28,1.22.42,1.98.42.52,0,.98-.07,1.4-.23.42-.16.87-.42,1.36-.79l1.75,2.47c-.48.41-1,.75-1.54,1.02-.54.27-1.11.46-1.68.58-.56.14-1.13.21-1.71.21v.02Z"/>
  <path d="M96.35,17.94V5.55h3.57l.12,2.24-.52.05c.17-.41.41-.77.7-1.07.3-.31.62-.57.98-.77.37-.22.77-.38,1.16-.49.41-.12.81-.18,1.21-.18.62,0,1.17.09,1.66.28.5.18.92.49,1.28.91.37.42.67.98.89,1.68l-.56-.09.17-.32c.22-.37.48-.71.79-1.01.32-.31.68-.57,1.07-.79.39-.22.78-.38,1.19-.49.42-.11.82-.17,1.21-.17.98,0,1.8.19,2.45.58s1.14.97,1.47,1.72c.32.75.49,1.67.49,2.78v7.54h-3.75v-7.25c0-.73-.16-1.27-.47-1.63-.3-.37-.75-.56-1.36-.56-.32,0-.63.06-.91.17-.27.09-.5.24-.7.44-.18.18-.33.41-.44.65-.11.25-.17.53-.17.84v7.35h-3.75v-7.28c0-.7-.17-1.24-.49-1.61-.31-.37-.76-.56-1.33-.56-.31,0-.61.06-.89.17-.27.09-.5.24-.7.44-.18.18-.33.41-.44.65-.11.25-.17.53-.17.84v7.35h-3.79Z"/>
  <path d="M122.52,18.17c-1.18,0-2.24-.18-3.17-.56-.93-.39-1.68-.92-2.24-1.59l2.29-1.96c.48.48,1.02.84,1.63,1.07.61.22,1.18.32,1.72.32.2,0,.38-.02.54-.07.16-.05.29-.11.4-.18.12-.09.22-.19.28-.3.06-.12.09-.27.09-.42,0-.31-.13-.54-.4-.7-.12-.07-.35-.17-.67-.28-.32-.12-.75-.25-1.26-.37-.73-.18-1.37-.42-1.91-.67-.53-.27-.97-.57-1.31-.91-.32-.31-.55-.67-.72-1.07-.16-.41-.23-.86-.23-1.36,0-.77.22-1.43.67-2,.47-.57,1.07-1.01,1.82-1.33.75-.32,1.56-.49,2.43-.49.68,0,1.33.07,1.94.23.62.16,1.2.37,1.72.66.54.28,1.02.62,1.45,1.01l-1.98,2.21c-.27-.27-.57-.5-.93-.7-.36-.22-.72-.39-1.07-.52-.36-.14-.69-.21-1.01-.21-.23,0-.44.02-.63.07-.17.03-.32.09-.44.18-.11.07-.19.17-.26.3-.07.11-.09.23-.09.37,0,.17.04.32.12.47.09.12.22.24.37.35.14.07.38.18.72.3.36.12.82.27,1.4.42.73.2,1.36.43,1.86.7.53.25.95.54,1.26.89.27.27.45.57.56.93.12.34.18.72.18,1.12,0,.79-.22,1.5-.67,2.12-.43.61-1.04,1.09-1.82,1.45-.77.34-1.64.52-2.64.52h0Z"/>
</svg>