<?xml version="1.0" encoding="UTF-8"?>
<svg id="Layer_1" xmlns="http://www.w3.org/2000/svg" version="1.1" viewBox="0 0 72 28">
  <!-- Generator: Adobe Illustrator 29.4.0, SVG Export Plug-In . SVG Version: 2.1.0 Build 152)  -->
  <defs>
    <style>
      .st0 {
        fill-opacity: .15;
      }

      .st0, .st1 {
        fill: #1b1d33;
      }

      .st2 {
        fill: #6e84e1;
      }

      .st1 {
        fill-opacity: .05;
      }

      .st3 {
        fill: #4a65d9;
      }
    </style>
  </defs>
  <path class="st3" d="M28.8,6.31h2.6v15.32h-2.6V6.31ZM34,6.31h5.3c1.15,0,2.12.13,2.86.38s1.34.6,1.77,1.04c.42.41.73.93.9,1.49.18.57.26,1.17.26,1.77,0,.64-.09,1.27-.26,1.88-.17.59-.48,1.13-.9,1.58-.5.49-1.1.85-1.77,1.07-.74.26-1.68.39-2.82.39h-2.79v5.74h-2.55V6.31ZM39.28,13.76c.55.02,1.09-.05,1.62-.19.37-.1.71-.28.99-.54.24-.23.42-.53.51-.85.1-.36.15-.73.15-1.11s-.04-.76-.15-1.12c-.1-.31-.28-.59-.53-.8-.29-.24-.64-.41-1.01-.5-.52-.13-1.06-.19-1.59-.18h-2.7v5.28h2.71ZM56.78,6.31v2.23h-7.18v4.33h6.76v2.25h-6.76v6.51h-2.6V6.31h9.78ZM60.6,16.95c.12,1.01.48,1.74,1.08,2.19s1.52.69,2.71.69c.5.01,1-.05,1.47-.19.35-.11.68-.28.96-.51.23-.2.41-.47.51-.76.1-.3.15-.62.15-.93,0-.24-.03-.48-.1-.72-.08-.24-.21-.47-.38-.66-.21-.22-.47-.4-.74-.53-.38-.17-.79-.28-1.2-.35l-1.96-.36c-.7-.12-1.39-.3-2.06-.54-.55-.19-1.07-.48-1.52-.85-.41-.35-.72-.79-.92-1.28-.22-.59-.32-1.22-.31-1.85-.05-1.3.58-2.53,1.65-3.27.56-.39,1.18-.66,1.84-.82.76-.18,1.53-.27,2.31-.26,1.05,0,1.94.12,2.66.36.64.2,1.23.52,1.74.95.43.38.77.84,1.01,1.36.23.51.39,1.05.47,1.61l-2.45.38c-.2-.86-.54-1.49-1.04-1.91s-1.27-.63-2.35-.63c-.52,0-1.03.05-1.53.16-.36.09-.69.24-.99.45-.23.17-.42.4-.54.67-.1.25-.16.52-.16.79,0,.67.18,1.17.54,1.5s1.01.58,1.93.77l2.12.41c1.62.31,2.8.82,3.56,1.53.76.72,1.14,1.77,1.14,3.12,0,.62-.11,1.23-.35,1.8-.24.56-.61,1.05-1.08,1.43-.54.43-1.15.76-1.81.96-.82.25-1.67.37-2.52.35-1.96,0-3.5-.41-4.61-1.24s-1.74-2.1-1.84-3.82h2.63-.02Z"/>
  <path class="st3" d="M1.8,20.47l11.29,6.52,11.29-6.52V7.43L13.1.91,1.8,7.43v13.04h0Z"/>
  <path class="st2" d="M11.94,2.47L3.74,7.2c0,.15,0,.29,0,.44l8.19,4.74c.69-.51,1.63-.51,2.32,0l8.19-4.74c0-.15,0-.29,0-.44L14.27,2.47c-.69.51-1.63.51-2.32,0h0ZM23.23,8.95l-8.2,4.79c.09.85-.38,1.67-1.16,2.02v9.42c.15.06.28.13.39.21l8.19-4.74c-.09-.85.38-1.67,1.16-2.02v-9.46c-.13-.06-.26-.13-.38-.21h0ZM2.96,9.01c-.12.08-.24.16-.38.21v9.46c.79.34,1.26,1.16,1.16,2.02l8.19,4.74c.12-.08.24-.16.38-.21v-9.46c-.79-.34-1.26-1.16-1.16-2.02,0,0-8.19-4.74-8.19-4.74Z"/>
  <path class="st3" d="M13.1,2.32l10.1,5.83v11.65l-10.1,5.83-10.1-5.82v-11.67L13.1,2.32M13.1.94L1.8,7.46v13.04l11.29,6.52,11.29-6.52V7.46L13.1.94Z"/>
  <path class="st3" d="M13.18,16.16h-.17c-1.16,0-2.11-.94-2.11-2.1h0v-.18c0-1.16.94-2.11,2.1-2.11h.18c1.16,0,2.11.94,2.11,2.1h0v.18c0,1.16-.94,2.11-2.1,2.11h0ZM13.18,24.84h-.17c-.76,0-1.46.41-1.84,1.08l1.93,1.11,1.93-1.11c-.38-.66-1.08-1.08-1.84-1.08ZM24.4,18.32h-.08c-1.16,0-2.11.94-2.11,2.1h0v.18c0,.36.09.71.27,1.02l1.93-1.11v-2.17h0ZM22.49,6.35c-.18.31-.27.66-.27,1.02v.17c0,1.16.94,2.11,2.1,2.11h.09v-2.19l-1.93-1.11h0ZM13.1.94l-1.93,1.11c.37.67,1.08,1.09,1.84,1.09h.17c.76,0,1.46-.41,1.84-1.08l-1.93-1.11ZM3.73,6.34l-1.93,1.11v2.19h.08c1.16,0,2.11-.94,2.11-2.1h0v-.18c0-.36-.1-.72-.27-1.03ZM1.89,18.32h-.08v2.17l1.93,1.11c.18-.31.27-.66.27-1.02v-.17c0-1.16-.94-2.11-2.1-2.11h0,0Z"/>
  <path class="st0" d="M13.1,27.08v-13.05L1.8,7.51v13.05l11.29,6.52h0Z"/>
  <path class="st1" d="M24.4,20.45V7.4l-11.29,6.52v13.05l11.29-6.53Z"/>
</svg>