<?xml version="1.0" encoding="UTF-8"?>
<svg id="Logo" xmlns="http://www.w3.org/2000/svg" viewBox="0 0 1026 1026">
  <g id="Logo-2" data-name="Logo">
    <path id="main-backing" d="M300.08,89.7c-4.11,1.71-6.63,3.76-10.34,6.79-3.76,3.06-7.29,6.97-14.35,14.78-1.43,1.58-7.81,8.99-9.9,11.56-4.15,5.12-11.82,15.05-13.3,17.01-1.48,1.96-2.98,3.99-4.64,6.27-11.19,15.36-17.25,24.98-21.9,31.84-14.42,21.27-21.9,25.65-47.6,54.79-3.15,3.57-25.18,28.56-38.31,46.71-31.09,43.01-41.34,87.98-44.45,104.41-16.64,87.9,19.53,159.17,31.03,181.83,14.96,29.48,33.39,52.94,39.44,60.45,18.29,22.67,34.7,37.35,46.71,48,24.49,21.71,49.68,38.37,99.08,70.79,36.76,24.13,34.72,21.65,53.01,34.43,27.1,18.92,54.3,37.91,80.97,64.65,18.73,18.78,44.62,48.82,67.88,92.94,21.17-41.99,45.38-70.4,62.81-87.98,25.48-25.71,51.69-43.61,75.06-59.58,19.83-13.55,24.04-14.92,51.72-32.65,22.3-14.28,53.48-34.25,79.79-54.9,23.39-18.35,63.91-50.69,98.48-104.3,15.2-23.56,35.24-55.27,45.47-102.15,4.56-20.88,14.14-76.66-6.47-140.94-14.4-44.92-39.95-82.83-57.97-102.15-1.24-1.33-3.8-4.02-7.32-7.88-4.76-5.21-10.82-12.04-18.11-20.79-7.63-9.15-9.01-11.29-18.03-22.51-2.54-3.16-10.11-12.53-19.68-23.86-12.25-14.51-18.38-21.76-27.16-30.77-3.77-3.87-9.76-10.11-18.18-17.8-9.4-8.58-8.75-7.09-18.24-15.82-1.72-1.58-7.17-6.63-14.87-12.5-4.66-3.56-7.71-5.55-12.07-6.25-1.65-.26-7.29-1.17-11.08,2.08-2.61,2.24-3.28,5.55-3.58,7.62-1.26,8.89-2.2,42.86-2.37,88.79-4.09-3.22-10.6-8.4-18.62-14.92-5.64-4.59-11.42-9-16.94-13.74,0,0-6.67-5.73-20.63-15.18-2.59-1.75-6.28-4.18-9.56-2.9-2.09.81-3.49,2.92-3.98,4.83-.99,3.85,1.53,7.51,2.49,8.94,4.75,7.03,8.32,14.8,12.57,22.14,4.67,8.07,6.43,14.7,9.84,27.64,2.26,8.55,3.54,16,4.31,21.77-12.51,10.27-22.82,19.68-30.87,27.42,0,0-15.05,14.47-28.45,32.49-1.1,1.48-2.92,4-4.69,7.6-2.41,4.91-3.58,9.51-4.4,14.35-1.83,10.71-.51,13.84-1.41,19.64-1.44,9.22-8.38,16.11-22.05,30.1-4.97,5.09-10.43,9.85-21.35,19.37-7.63,6.65-14.01,12.05-18.37,15.7-4.37,3.52-13.64,11.23-20.77,19.52-1.52,1.77-3.72,4.46-4.02,8.24-.33,4.13,1.76,7.41,2.94,9.22,8.91,13.56,17.67,22.9,17.67,22.9,9.05,9.65,13.66,14.53,17.71,17.24,6.05,4.05,7.92,3.8,15.26,8.56,9.53,6.19,10.28,9.14,16.16,13.15,12.13,8.26,26.32,7.52,37.34,6.95,13.29-.69,24.47-4.49,29.69-6.3,7.18-2.49,7.18-3.27,12.07-4.53,6.38-1.64,19.29-4.96,31.25,1.72,15.64,8.74,17.55,27.79,17.72,29.93.55,6.57-.8,11.58-2.27,17.01-3.13,11.6-8.5,19.45-13.3,26.33-5.36,7.7-9.98,12.56-17.46,20.36-8.94,9.34-16.25,15.98-24.73,23.6-16.65,14.94-26.08,23.05-30.87,27.31,0,0-23.55,20.94-45.09,49.46-28.49,37.71-41.07,82.92-46.87,113.78-9.12-57.59-30.45-94.48-46.71-116.37-34.26-46.11-75.75-76.34-75.75-76.34-10.12-7.37-34.81-24.45-56.89-51.29-3.85-4.68-14.77-18.35-19.4-38.36-2.86-12.36-1.82-20.7-.65-25.86,1.28-5.66,3.19-14.05,10.56-20.04,6.59-5.36,14.08-5.97,18.53-6.27,5.91-.4,10.53.52,30.17,7.35,17.16,5.96,18.84,7.83,26.72,8.62,2.29.23,11.34,1.01,21.51-2.21,7.15-2.26,10.56-5.14,11.73-6.2,1.45-1.31,3.2-2.89,4.8-5.5,1.54-2.5,1.55-3.69,3.28-5.65,1.22-1.39,1.99-1.68,4.69-3.56,0,0,2.78-1.93,6.89-5.35,3.13-2.6,5.24-4.78,7.01-6.61,3.03-3.13,5.93-6.51,18.43-24.24,3.44-4.89,5.6-8.02,6.3-12.77.68-4.57-.4-7.85-.65-8.57-.82-2.36-1.86-3.58-4.36-6.79,0,0-2.42-3.11-8.57-11.48-1.56-2.12-1.2-1.75-6.68-9.82-4-5.91-6.02-8.89-7.85-11.62-1.98-2.97-2.98-4.45-3.26-4.9-2.06-3.3-5.28-8.46-6.95-13.95-1.19-3.9-1.11-6.36-1.29-12.71-.22-7.32-.73-17.92-1.29-22.41-.89-7.17-3.72-13.5-13.58-27.15-7.85-10.87-19.96-26.1-37.5-43.32,1.02-9.57,2.78-17.55,4.41-23.58,1.31-4.84,2.92-10.7,6.15-18.01,1.98-4.48,4.53-9.05,9.63-18.17,3.82-6.84,6.75-12,6.75-12,4.72-8.31,7.29-12.67,7.76-18.96.2-2.67.39-5.78-1.51-7.33-2.18-1.78-6.11-.66-10.88.7-3.55,1.01-6.06,2.17-6.27,2.27-7.86,3.68-14.23,7.78-18.4,10.39-6.86,4.29-12.5,7.52-15.95,9.48-6.07,3.47-9.48,5.25-15.32,8.99-2.77,1.78-5.09,3.27-7.74,5.23-3.93,2.91-9.32,7.42-15.05,14.06.02-4.95.02-12.02-.09-20.52-.04-3.12-.18-14.04-.86-31.98-.96-25.57-2.32-33.77-7.29-41.97-4.06-6.7-7.86-8.76-10.5-9.65-6.41-2.16-12.82.49-16,1.82Z" style="fill: #21255f; stroke: #21255f; stroke-miterlimit: 10;"/>
  </g>
</svg>